<svg width="24" height="24" viewBox="0 0 24 24" fill="none" xmlns="http://www.w3.org/2000/svg">
<path d="M23.7609 7.20002C23.7609 7.20002 23.5266 5.54533 22.8047 4.81877C21.8906 3.86252 20.8688 3.85783 20.4 3.80158C17.0438 3.55783 12.0047 3.55783 12.0047 3.55783H11.9953C11.9953 3.55783 6.95625 3.55783 3.6 3.80158C3.13125 3.85783 2.10938 3.86252 1.19531 4.81877C0.473438 5.54533 0.24375 7.20002 0.24375 7.20002C0.24375 7.20002 0 9.14533 0 11.086V12.9047C0 14.8453 0.239062 16.7906 0.239062 16.7906C0.239062 16.7906 0.473437 18.4453 1.19062 19.1719C2.10469 20.1281 3.30469 20.0953 3.83906 20.1985C5.76094 20.3813 12 20.4375 12 20.4375C12 20.4375 17.0438 20.4281 20.4 20.1891C20.8688 20.1328 21.8906 20.1281 22.8047 19.1719C23.5266 18.4453 23.7609 16.7906 23.7609 16.7906C23.7609 16.7906 24 14.85 24 12.9047V11.086C24 9.14533 23.7609 7.20002 23.7609 7.20002ZM9.52031 15.1125V8.36721L16.0031 11.7516L9.52031 15.1125Z" fill="black"/>
</svg>
