<svg width="135" height="40" viewBox="0 0 135 40" fill="none" xmlns="http://www.w3.org/2000/svg"><g clip-path="url(#clip0)"><path d="M130 40H5c-2.75 0-5-2.25-5-5V5c0-2.75 2.25-5 5-5h125c2.75 0 5 2.25 5 5v30c0 2.75-2.25 5-5 5z" fill="#000"/><path d="M130 .8a4.2 4.2 0 014.2 4.2v30a4.2 4.2 0 01-4.2 4.2H5A4.2 4.2 0 01.8 35V5A4.2 4.2 0 015 .8h125zm0-.8H5C2.25 0 0 2.25 0 5v30c0 2.75 2.25 5 5 5h125c2.75 0 5-2.25 5-5V5c0-2.75-2.25-5-5-5z" fill="#A6A6A6"/><path d="M68.14 21.75c-2.35 0-4.27 1.79-4.27 4.25 0 2.45 1.92 4.25 4.27 4.25 2.35 0 4.27-1.8 4.27-4.25 0-2.46-1.92-4.25-4.27-4.25zm0 6.83c-1.29 0-2.4-1.06-2.4-2.58 0-1.53 1.11-2.58 2.4-2.58 1.29 0 2.4 1.05 2.4 2.58 0 1.52-1.12 2.58-2.4 2.58zm-9.32-6.83c-2.35 0-4.27 1.79-4.27 4.25 0 2.45 1.92 4.25 4.27 4.25 2.35 0 4.27-1.8 4.27-4.25 0-2.46-1.92-4.25-4.27-4.25zm0 6.83c-1.29 0-2.4-1.06-2.4-2.58 0-1.53 1.11-2.58 2.4-2.58 1.29 0 2.4 1.05 2.4 2.58 0 1.52-1.11 2.58-2.4 2.58zm-11.08-5.52v1.8h4.32c-.13 1.01-.47 1.76-.98 2.27-.63.63-1.61 1.32-3.33 1.32-2.66 0-4.74-2.14-4.74-4.8 0-2.66 2.08-4.8 4.74-4.8 1.43 0 2.48.56 3.25 1.29l1.27-1.27c-1.08-1.03-2.51-1.82-4.53-1.82-3.64 0-6.7 2.96-6.7 6.61 0 3.64 3.06 6.61 6.7 6.61 1.97 0 3.45-.64 4.61-1.85 1.19-1.19 1.56-2.87 1.56-4.22 0-.42-.03-.81-.1-1.13h-6.07v-.01zm45.31 1.4c-.35-.95-1.43-2.71-3.64-2.71-2.19 0-4.01 1.72-4.01 4.25 0 2.38 1.8 4.25 4.22 4.25 1.95 0 3.08-1.19 3.54-1.88l-1.45-.97c-.48.71-1.14 1.18-2.09 1.18s-1.63-.44-2.06-1.29l5.69-2.35-.2-.48zm-5.8 1.42c-.05-1.64 1.27-2.48 2.22-2.48.74 0 1.37.37 1.58.9l-3.8 1.58zM82.63 30h1.87V17.5h-1.87V30zm-3.06-7.3h-.07c-.42-.5-1.22-.95-2.24-.95-2.13 0-4.08 1.87-4.08 4.27 0 2.38 1.95 4.24 4.08 4.24 1.01 0 1.82-.45 2.24-.97h.06v.61c0 1.63-.87 2.5-2.27 2.5-1.14 0-1.85-.82-2.14-1.51l-1.63.68c.47 1.13 1.71 2.51 3.77 2.51 2.19 0 4.04-1.29 4.04-4.43v-7.64h-1.77v.69h.01zm-2.15 5.88c-1.29 0-2.37-1.08-2.37-2.56 0-1.5 1.08-2.59 2.37-2.59 1.27 0 2.27 1.1 2.27 2.59.01 1.48-.99 2.56-2.27 2.56zm24.39-11.08h-4.47V30h1.87v-4.74h2.61c2.07 0 4.1-1.5 4.1-3.88s-2.05-3.88-4.11-3.88zm.04 6.02H99.2v-4.29h2.65c1.4 0 2.19 1.16 2.19 2.14 0 .98-.79 2.15-2.19 2.15zm11.54-1.79c-1.35 0-2.75.6-3.33 1.91l1.66.69c.35-.69 1.01-.92 1.7-.92.96 0 1.95.58 1.96 1.61v.13c-.34-.19-1.06-.48-1.95-.48-1.79 0-3.6.98-3.6 2.81 0 1.67 1.46 2.75 3.1 2.75 1.25 0 1.95-.56 2.38-1.22h.06v.97h1.8v-4.79c.01-2.22-1.65-3.46-3.78-3.46zm-.23 6.85c-.61 0-1.46-.31-1.46-1.06 0-.96 1.06-1.33 1.98-1.33.82 0 1.21.18 1.7.42a2.257 2.257 0 01-2.22 1.97zM123.74 22l-2.14 5.42h-.06L119.32 22h-2.01l3.33 7.58-1.9 4.21h1.95L125.82 22h-2.08zm-16.8 8h1.87V17.5h-1.87V30z" fill="#fff"/><path fill-rule="evenodd" clip-rule="evenodd" d="M47.42 10.24c0 .84-.25 1.51-.75 2-.56.59-1.3.89-2.2.89-.87 0-1.6-.3-2.21-.9-.61-.6-.91-1.35-.91-2.23 0-.89.3-1.63.91-2.23.61-.6 1.34-.9 2.21-.9.43 0 .84.08 1.23.25.39.17.7.39.94.67l-.53.53c-.4-.47-.94-.71-1.64-.71-.63 0-1.18.22-1.64.67-.46.44-.69 1.02-.69 1.73s.23 1.29.69 1.73c.46.44 1.01.67 1.64.67.67 0 1.23-.22 1.68-.67.29-.29.46-.7.5-1.22h-2.18V9.8h2.91c.02.15.04.3.04.44zm4.61-2.5H49.3v1.9h2.46v.72H49.3v1.9h2.73V13h-3.5V7h3.5v.74zM54.51 13h.76V7.74h1.68V7h-4.12v.74h1.68V13zm5.43-6h.77v6h-.77V7zm3.42 6h.76V7.74h1.68V7h-4.12v.74h1.68V13zm10.25-.78c-.59.61-1.32.91-2.2.91-.88 0-1.61-.3-2.2-.91-.59-.61-.88-1.35-.88-2.22 0-.87.29-1.62.88-2.22.59-.61 1.32-.91 2.2-.91.87 0 1.6.3 2.2.91.59.61.89 1.35.89 2.22-.01.88-.3 1.62-.89 2.22zm-3.83-.5c.44.45.99.67 1.63.67.64 0 1.19-.22 1.63-.67.44-.45.67-1.02.67-1.72s-.22-1.27-.67-1.72c-.44-.45-.99-.67-1.63-.67-.64 0-1.19.22-1.63.67-.44.45-.67 1.02-.67 1.72s.23 1.27.67 1.72zM76.52 7h-.94v6h.78V9.27l-.03-1.16h.03L79.41 13h.8V7h-.77v3.51l.03 1.16h-.03L76.52 7z" fill="#fff"/><path d="M46.67 12.24l-.07-.072-.003.003.073.069zm-.97-5.12l.04-.092-.04.092zm.94.67l.07.07.066-.065-.06-.07-.076.065zm-.53.53l-.076.065.07.082.077-.076-.071-.071zm-3.28-.04l.07.072-.07-.072zm3.82 2.24l.1.008.008-.108h-.108v.1zm-2.18 0h-.1v.1h.1v-.1zm0-.72v-.1h-.1v.1h.1zm2.91 0l.1-.013-.012-.087h-.088v.1zm1.92-2.06v-.1h-.1v.1h.1zm2.73 0v.1h.1v-.1h-.1zm-2.73 1.9h-.1v.1h.1v-.1zm2.46 0h.1v-.1h-.1v.1zm0 .72v.1h.1v-.1h-.1zm-2.46 0v-.1h-.1v.1h.1zm0 1.9h-.1v.1h.1v-.1zm2.73 0h.1v-.1h-.1v.1zm0 .74v.1h.1V13h-.1zm-3.5 0h-.1v.1h.1V13zm0-6v-.1h-.1V7h.1zm3.5 0h.1v-.1h-.1V7zm3.24 6v.1h.1V13h-.1zm-.76 0h-.1v.1h.1V13zm.76-5.26v-.1h-.1v.1h.1zm1.68 0v.1h.1v-.1h-.1zm0-.74h.1v-.1h-.1V7zm-4.12 0v-.1h-.1V7h.1zm0 .74h-.1v.1h.1v-.1zm1.68 0h.1v-.1h-.1v.1zm6.2-.74h.1v-.1h-.1V7zm-.77 0v-.1h-.1V7h.1zm.77 6v.1h.1V13h-.1zm-.77 0h-.1v.1h.1V13zm4.18 0v.1h.1V13h-.1zm-.76 0h-.1v.1h.1V13zm.76-5.26v-.1h-.1v.1h.1zm1.68 0v.1h.1v-.1h-.1zm0-.74h.1v-.1h-.1V7zm-4.12 0v-.1h-.1V7h.1zm0 .74h-.1v.1h.1v-.1zm1.68 0h.1v-.1h-.1v.1zm10.25 4.48l-.071-.07.071.07zm-4.4-4.44l.071.07-.071-.07zm4.4 0l.072-.07-.072.07zM74.5 10l.1.001V10h-.1zm-1.46 1.72l.072.07-.072-.07zm0-3.44l-.072.07h.001l.071-.07zm-3.26 0l-.072-.07.072.07zM75.58 7v-.1h-.1V7h.1zm.94 0l.085-.053-.03-.047h-.055V7zm-.94 6h-.1v.1h.1V13zm.78 0v.1h.1V13h-.1zm0-3.73h.1v-.003l-.1.003zm-.03-1.16v-.1h-.103l.003.103.1-.003zm.03 0l.085-.053-.03-.047h-.055v.1zM79.41 13l-.085.053.03.047h.055V13zm.8 0v.1h.1V13h-.1zm0-6h.1v-.1h-.1V7zm-.77 0v-.1h-.1V7h.1zm0 3.51h-.1v.003l.1-.003zm.03 1.16v.1h.103l-.003-.103-.1.003zm-.03 0l-.085.053.03.047h.055v-.1zm-32.7.641c.523-.512.78-1.21.78-2.071h-.2c0 .82-.243 1.461-.72 1.929l.14.142zm-2.27.919c.924 0 1.692-.31 2.273-.921l-.146-.138c-.539.568-1.251.859-2.127.859v.2zm-2.28-.929a3.126 3.126 0 002.28.929v-.2c-.844 0-1.549-.29-2.14-.871l-.14.142zM41.25 10c0 .905.31 1.681.94 2.301l.14-.142c-.59-.58-.88-1.304-.88-2.159h-.2zm.94-2.301c-.63.62-.94 1.386-.94 2.301h.2c0-.865.29-1.579.88-2.159l-.14-.142zm2.28-.929c-.896 0-1.651.31-2.28.929l.14.142a2.926 2.926 0 012.14-.871v-.2zm1.27.258a3.141 3.141 0 00-1.27-.258v.2c.417 0 .813.078 1.19.242l.08-.184zm.976.697a2.643 2.643 0 00-.976-.697l-.08.184c.379.165.675.376.904.643l.152-.13zm-.535.666l.53-.53-.142-.142-.53.53.142.142zM44.47 7.71c.674 0 1.185.23 1.564.675l.152-.13c-.42-.495-.99-.745-1.716-.745v.2zm-1.57.641a2.166 2.166 0 011.57-.641v-.2c-.656 0-1.231.23-1.71.699l.14.142zm-.66 1.659c0-.686.221-1.239.66-1.658l-.14-.144c-.481.461-.72 1.068-.72 1.802h.2zm.66 1.658c-.439-.419-.66-.972-.66-1.658h-.2c0 .734.239 1.341.72 1.802l.14-.144zm1.57.642c-.603 0-1.129-.22-1.57-.642l-.14.144a2.407 2.407 0 001.71.698v-.2zm1.61-.64c-.43.43-.964.64-1.61.64v.2c.694 0 1.28-.23 1.75-.7l-.14-.14zm.47-1.158c-.038.503-.201.888-.47 1.157l.14.142c.312-.311.488-.746.53-1.283l-.2-.016zm-2.08.108h2.18v-.2h-2.18v.2zm-.1-.82v.72h.2V9.8h-.2zm3.01-.1h-2.91v.2h2.91v-.2zm.14.54c0-.148-.021-.305-.04-.453l-.2.026c.021.152.04.295.04.427h.2zm1.78-2.4h2.73v-.2H49.3v.2zm.1 1.8v-1.9h-.2v1.9h.2zm2.36-.1H49.3v.2h2.46v-.2zm.1.82v-.72h-.2v.72h.2zm-2.56.1h2.46v-.2H49.3v.2zm.1 1.8v-1.9h-.2v1.9h.2zm2.63-.1H49.3v.2h2.73v-.2zm.1.84v-.74h-.2V13h.2zm-3.6.1h3.5v-.2h-3.5v.2zm-.1-6.1v6h.2V7h-.2zm3.6-.1h-3.5v.2h3.5v-.2zm.1.84V7h-.2v.74h.2zm3.14 5.16h-.76v.2h.76v-.2zm-.1-5.16V13h.2V7.74h-.2zm1.78-.1h-1.68v.2h1.68v-.2zm-.1-.64v.74h.2V7h-.2zm-4.02.1h4.12v-.2h-4.12v.2zm.1.64V7h-.2v.74h.2zm1.58-.1h-1.68v.2h1.68v-.2zm.1 5.36V7.74h-.2V13h.2zm6.1-6.1h-.77v.2h.77v-.2zm.1 6.1V7h-.2v6h.2zm-.87.1h.77v-.2h-.77v.2zm-.1-6.1v6h.2V7h-.2zm4.28 5.9h-.76v.2h.76v-.2zm-.1-5.16V13h.2V7.74h-.2zm1.78-.1h-1.68v.2h1.68v-.2zM65.7 7v.74h.2V7h-.2zm-4.02.1h4.12v-.2h-4.12v.2zm.1.64V7h-.2v.74h.2zm1.58-.1h-1.68v.2h1.68v-.2zm.1 5.36V7.74h-.2V13h.2zm7.95.23c.906 0 1.662-.31 2.272-.94l-.144-.14c-.57.59-1.274.88-2.128.88v.2zm-2.272-.94c.61.63 1.366.94 2.272.94v-.2c-.854 0-1.558-.29-2.128-.88l-.144.14zM68.23 10c0 .895.3 1.66.908 2.29l.144-.14c-.571-.59-.852-1.305-.852-2.15h-.2zm.909-2.29c-.61.62-.909 1.396-.909 2.29h.2c0-.846.281-1.57.851-2.15l-.142-.14zm2.271-.94c-.906 0-1.662.31-2.272.94l.144.14c.57-.59 1.274-.88 2.128-.88v-.2zm2.271.94c-.619-.63-1.375-.94-2.271-.94v.2c.844 0 1.548.29 2.129.88l.142-.14zM74.6 10c0-.896-.31-1.66-.918-2.29l-.144.14c.572.59.862 1.306.862 2.15h.2zm-.919 2.29c.61-.62.909-1.385.919-2.289L74.4 10c-.01.856-.29 1.57-.861 2.15l.142.141zm-2.271 0c-.615 0-1.138-.21-1.558-.64l-.144.14c.46.47 1.037.7 1.702.7v-.2zm1.559-.64c-.42.43-.944.64-1.559.64v.2c.665 0 1.242-.23 1.702-.7l-.143-.14zM73.61 10c0 .676-.221 1.22-.641 1.65l.143.14c.459-.47.698-1.066.698-1.79h-.2zm-.64-1.65c.428.43.64.973.64 1.65h.2c0-.723-.228-1.32-.7-1.79l-.14.14zm-1.56-.64c.615 0 1.138.21 1.559.64l.143-.14c-.46-.47-1.037-.7-1.702-.7v.2zm-1.558.64c.42-.43.943-.64 1.558-.64v-.2c-.665 0-1.242.23-1.701.7l.142.14zM69.21 10c0-.676.221-1.22.642-1.65l-.144-.14c-.459.47-.698 1.066-.698 1.79h.2zm.642 1.65c-.421-.43-.642-.974-.642-1.65h-.2c0 .724.239 1.32.698 1.79l.144-.14zM75.58 7.1h.94v-.2h-.94v.2zm.1 5.9V7h-.2v6h.2zm.68-.1h-.78v.2h.78v-.2zm-.1-3.63V13h.2V9.27h-.2zm-.03-1.157l.03 1.16.2-.006-.03-1.16-.2.006zm.13-.103h-.03v.2h.03v-.2zm3.135 4.937l-3.05-4.89-.17.106 3.05 4.89.17-.106zm.715-.047h-.8v.2h.8v-.2zm-.1-5.9v6h.2V7h-.2zm-.67.1h.77v-.2h-.77v.2zm.1 3.41V7h-.2v3.51h.2zm.03 1.157l-.03-1.16-.2.006.03 1.16.2-.006zm-.13.103h.03v-.2h-.03v.2zm-3.005-4.717l2.92 4.67.17-.106-2.92-4.67-.17.106z" fill="#fff"/><path d="M10.44 7.54c-.29.31-.46.79-.46 1.4v22.12c0 .62.17 1.1.46 1.4l.07.07L22.9 20.15v-.3L10.51 7.47l-.07.07z" fill="url(#paint0_linear)"/><path d="M27.03 24.28l-4.13-4.13v-.3l4.13-4.13.09.05 4.89 2.78c1.4.79 1.4 2.09 0 2.89l-4.89 2.78-.09.06z" fill="url(#paint1_linear)"/><path d="M27.12 24.22L22.9 20 10.44 32.46c.46.49 1.22.55 2.08.06l14.6-8.3z" fill="url(#paint2_linear)"/><path d="M27.12 15.78l-14.61-8.3c-.86-.49-1.62-.43-2.08.06L22.9 20l4.22-4.22z" fill="url(#paint3_linear)"/><path opacity=".2" d="M27.03 24.13l-14.52 8.25c-.81.46-1.54.43-2 .01l-.07.07.07.07c.47.42 1.19.45 2-.01l14.61-8.3-.09-.09z" fill="#000"/><path opacity=".12" d="M10.44 32.32c-.29-.31-.46-.79-.46-1.4v.15c0 .62.17 1.1.46 1.4l.07-.07-.07-.08zM32.01 21.3l-4.99 2.83.09.09L32 21.44c.7-.4 1.05-.92 1.05-1.44-.05.47-.4.94-1.04 1.3z" fill="#000"/><path opacity=".25" d="M12.51 7.62l19.5 11.08c.63.36.99.82 1.05 1.3 0-.52-.35-1.05-1.05-1.44L12.51 7.48c-1.4-.79-2.54-.13-2.54 1.47v.15c0-1.61 1.15-2.27 2.54-1.48z" fill="#fff"/></g><defs><linearGradient id="paint0_linear" x1="21.8" y1="8.71" x2="5.017" y2="25.492" gradientUnits="userSpaceOnUse"><stop stop-color="#00A0FF"/><stop offset=".007" stop-color="#00A1FF"/><stop offset=".26" stop-color="#00BEFF"/><stop offset=".512" stop-color="#00D2FF"/><stop offset=".76" stop-color="#00DFFF"/><stop offset="1" stop-color="#00E3FF"/></linearGradient><linearGradient id="paint1_linear" x1="33.834" y1="20.001" x2="9.638" y2="20.001" gradientUnits="userSpaceOnUse"><stop stop-color="#FFE000"/><stop offset=".409" stop-color="#FFBD00"/><stop offset=".775" stop-color="orange"/><stop offset="1" stop-color="#FF9C00"/></linearGradient><linearGradient id="paint2_linear" x1="24.827" y1="22.296" x2="2.069" y2="45.054" gradientUnits="userSpaceOnUse"><stop stop-color="#FF3A44"/><stop offset="1" stop-color="#C31162"/></linearGradient><linearGradient id="paint3_linear" x1="7.297" y1=".176" x2="17.46" y2="10.339" gradientUnits="userSpaceOnUse"><stop stop-color="#32A071"/><stop offset=".069" stop-color="#2DA771"/><stop offset=".476" stop-color="#15CF74"/><stop offset=".801" stop-color="#06E775"/><stop offset="1" stop-color="#00F076"/></linearGradient><clipPath id="clip0"><path fill="#fff" d="M0 0h135v40H0z"/></clipPath></defs></svg>